<?xml version="1.0"?>
<svg xmlns:rdf="http://www.w3.org/1999/02/22-rdf-syntax-ns#" xmlns="http://www.w3.org/2000/svg" xmlns:cc="http://web.resource.org/cc/" xmlns:dc="http://purl.org/dc/elements/1.1/" xmlns:svg="http://www.w3.org/2000/svg" id="svg2878" viewBox="0 0 782.81 688.75" version="1.0">
  <path id="path2959" d="m369.13 688.58c-28.44-1.69-59.51-5.85-66.96-8.96-2.85-1.19-18.66-1.37-123.68-1.37h-120.41l0.28-3.4 0.283-3.41 120.02-0.46c109.29-0.41 120.29-0.59 123.19-1.96 3.22-1.53 11.27-3.74 17.5-4.81 2.47-0.42 3.41-1.04 3.41-2.22 0-0.91 5.07-22.06 11.27-47.01 6.19-24.96 13.76-55.6 16.83-68.1 3.06-12.5 5.81-23.65 6.12-24.78l0.54-2.04h-129.31v-16.37h-228.21v-503.69l391.41-1.0658e-14h391.4v503.69h-204.57v16.37h-130.22l0.46 2.04c0.25 1.13 7.63 31.13 16.4 66.67s16.45 67.07 17.07 70.05l1.12 5.44 5.87 1.11c3.23 0.61 8.17 2.01 10.99 3.11l5.12 1.99 119.56 0.48 119.56 0.49 0.28 3.41 0.29 3.4h-120.13c-82.87 0-120.69 0.3-121.93 0.97-3.68 1.97-24.21 5.45-42.89 7.28-14.49 1.42-27.43 1.95-52.02 2.16-18 0.15-35.39 0.11-38.64-0.08zm5.25-29.1l18.42-0.6-0.24-20.09-0.25-20.09-5.9-0.21c-3.26-0.12-10.72-0.9-16.6-1.74s-10.84-1.35-11.02-1.15c-0.18 0.21-2.67 9.97-5.54 21.69-2.88 11.73-5.45 21.92-5.73 22.64-0.42 1.09 0.28 1.22 3.96 0.74 2.46-0.32 12.76-0.86 22.9-1.19zm78.09-21c-3.01-12.38-5.59-22.67-5.74-22.86-0.15-0.2-4.68 0.32-10.07 1.14s-12.15 1.5-15.02 1.49h-5.23v40.91l8.86 0.09c4.88 0.05 12.35 0.4 16.6 0.77s9.6 0.74 11.9 0.82l4.18 0.14-5.48-22.5zm-59.7-32.62v-3.3l-10.23 0.61c-5.62 0.33-12.48 1.07-15.23 1.63l-5 1.02 3.64 0.8c5.12 1.12 15.42 2.28 21.59 2.42l5.23 0.12v-3.3zm40.69 1.36c4.12-0.54 7.5-1.11 7.5-1.28 0-0.6-9.79-2.12-17.05-2.65l-7.5-0.54v6.58l4.77-0.57c2.63-0.31 8.15-1.01 12.28-1.54zm-58.25-12.59c3.6-0.51 9.02-0.93 12.05-0.93h5.51v-73.64h-10.67l-1.04 3.86c-2.59 9.64-17.38 70.35-17.38 71.35 0 0.71 0.9 0.96 2.5 0.7 1.37-0.23 5.44-0.83 9.03-1.34zm57.57-36.23c-5-20.58-9.1-37.62-9.1-37.88 0-0.25-1.63-0.46-3.63-0.46h-3.64v73.64l4.32 0.08c2.37 0.04 8 0.57 12.5 1.18s8.29 1.05 8.41 0.98c0.13-0.07-3.86-16.96-8.86-37.54z" fill="#9e9ca0"/>
  <path id="path2957" d="m399.28 685.86c-6.1-3.11-6.06-2.83-6.06-36.67v-30.49l-5.45-0.21c-4.74-0.18-8.9-0.67-21.82-2.6-1.5-0.22-3.8-0.62-5.11-0.89l-2.39-0.48-6.61 27.09c-3.63 14.91-7.18 28.24-7.89 29.64-1.37 2.73-4.18 4.18-9.6 4.94-2.21 0.32-3.41 0.13-3.41-0.54 0-0.57-0.59-1.03-1.31-1.03-1.94 0-5.97-5.72-6.55-9.27-0.33-2.09 1.02-8.94 4.19-21.23 2.58-9.98 4.84-19.17 5.04-20.42 0.19-1.25 3.4-14.34 7.12-29.09s8.7-35 11.05-45.01c2.36-10 4.86-19.99 5.56-22.21 0.7-2.21 1.27-4.77 1.27-5.68 0-1.58-2.69-1.65-64.1-1.65-50.62 0-64.11-0.24-64.18-1.14-0.04-0.63-0.04-4.31 0.02-8.18l0.1-7.05h-229.15v-502.78l391.41-0.00081h391.4v502.78h-205.48v16.37h-65c-35.76 0-65.01 0.16-65.01 0.35 0 0.2 0.77 2.96 1.71 6.14 1.98 6.72 2.92 10.49 13.29 53.06 4.26 17.5 8.96 36.52 10.44 42.27 9.49 36.71 10.99 46.42 7.75 50.01-2.18 2.4-6.55 4.55-9.28 4.55-5.52 0-11.31-6.11-12.59-13.3-0.52-2.9-4.94-21.33-10.6-44.22-0.79-3.2-1.44-4.22-2.48-3.93-1.33 0.37-5.9 1.14-11.65 1.96-1.38 0.19-5.88 0.62-10 0.96l-7.5 0.61-0.07 29.18c-0.07 31.3-0.41 34.02-4.62 37.16-3.26 2.43-8.75 2.87-12.44 1zm-5.76-80.26l0.3-3.09-12.57 0.57c-6.92 0.31-14.21 1.04-16.21 1.62-3.51 1.01-3.56 1.08-1.39 1.89 3.25 1.21 13.91 2.26 22.3 2.18l7.27-0.07 0.3-3.1zm43.16 1.36c3.93-0.81 5.09-1.33 3.82-1.72-3.65-1.12-13.77-2.43-18.86-2.44l-5.23-0.01v6.6l7.32-0.64c4.02-0.35 9.85-1.16 12.95-1.79zm-61.96-11.92c0.86-0.17 5.12-0.54 9.46-0.83 4.34-0.3 8.25-0.76 8.7-1.03 0.44-0.27 0.8-16.8 0.8-36.81v-36.31h-5.81c-4.01 0-5.96 0.37-6.28 1.21-0.35 0.92-6.71 26.08-9.34 36.97-0.18 0.75-1.15 4.64-2.15 8.64-0.99 4-2.88 11.73-4.2 17.18-1.31 5.44-2.62 10.51-2.9 11.26-0.44 1.15 0.28 1.25 4.82 0.69 2.94-0.37 6.04-0.81 6.9-0.97zm66.05-5.34c-2.3-9.06-6.16-25.11-6.69-27.82-0.25-1.25-0.68-2.89-0.96-3.64s-0.7-2.38-0.94-3.63c-0.46-2.44-6.08-25.32-7.63-31.08-0.89-3.28-1.14-3.47-4.54-3.47h-3.6v36.82c0 28.81 0.25 36.83 1.13 36.89 0.63 0.03 1.96 0.2 2.96 0.36s5.05 0.54 9 0.83 7.37 0.71 7.59 0.93c0.22 0.23 1.51 0.38 2.86 0.34l2.46-0.07-1.64-6.46z" fill="#a57f45"/>
  <path id="path2951" d="m229.12 520.06v-16.37h-229.12v-502.78l391.41-0.00081h391.4v502.78h-205.48v16.37h-348.21zm344.58-12.73v-8.19h-340.95v16.37h340.95v-8.18zm-345.49-10.46v-2.27h350.03v4.54h200.03v-494.59l-386.86-0.0041h-386.86l-0.0041 247.3v247.29h223.66v-2.27zm-211.84-243.21v-237.3l375.94 0.005h375.96v474.6h-751.89l-0.005-237.3z" fill="#46544c"/>
  <path id="path2947" d="m402.32 686.47c-1-0.37-2.65-0.96-3.65-1.31-1.01-0.35-2.54-1.88-3.41-3.39-1.42-2.46-1.58-5.95-1.58-33.14v-30.38h-5.52c-3.03 0-10.86-0.83-17.39-1.85-6.54-1.01-12.06-1.68-12.26-1.47-0.21 0.21-3.4 12.46-7.09 27.24-3.69 14.77-7.35 27.85-8.15 29.06-3.68 5.61-12.43 5.77-17.05 0.3-4.46-5.28-4.69-3.82 10.47-65.1 7.74-31.25 15.66-63.37 17.61-71.37l3.55-14.55-64.37-0.23-64.36-0.24v-16.35h-229.12v-502.78l391.41-0.00081h391.4v502.78h-205.48v16.37h-130.22l0.57 2.04c0.31 1.13 5.91 23.53 12.44 49.78 23.55 94.68 23.49 94.39 20.33 98.9-3.41 4.87-11.85 6.1-16.02 2.33-3.22-2.92-4.27-6.09-10.74-32.25-3.48-14.08-6.46-25.74-6.62-25.9s-5.39 0.51-11.61 1.49c-6.23 0.98-13.04 1.78-15.14 1.79l-3.82 0.01-0.27 29.77c-0.25 27.21-0.43 30.07-2.01 33.14-2.15 4.16-7.98 6.76-11.9 5.31zm8.74-7.12c1.04-2.03 1.3-16.14 1.5-80.88l0.25-78.41h-15.47l-0.24 78.33c-0.2 65.03-0.03 78.78 1.01 80.92 2.39 4.92 10.42 4.94 12.95 0.04zm-72.01-9.05c1.84-1.5 3.96-9.19 15.06-54.54 0.42-1.7-0.14-2.34-3.48-3.9-2.18-1.03-4.43-2.87-4.98-4.08-1.51-3.31 2.22-7.3 8.56-9.14 3.19-0.93 4.92-1.92 4.92-2.82 0-0.77 4.09-17.74 9.09-37.71 5-19.98 9.09-36.71 9.09-37.19s-3.42-0.86-7.69-0.86h-7.69l-0.9 3.41c-1.78 6.76-4.63 18.24-8.29 33.41-2.05 8.5-8.82 36.02-15.05 61.15-10.92 44.11-11.26 45.8-9.98 48.88 1.99 4.77 7.61 6.44 11.34 3.39zm137.19-0.26c3.64-3.39 4.05-1.25-15.37-79.98-4.01-16.25-9.36-37.73-11.89-47.73s-4.81-19.1-5.06-20.23c-0.42-1.92-0.9-2.04-8.14-2.04h-7.7l0.62 2.95c0.35 1.63 4.32 18.09 8.83 36.6 4.52 18.5 8.41 34.53 8.64 35.63 0.29 1.35 1.36 2.19 3.29 2.61 4.37 0.94 9.5 3.82 10.65 5.97 1.53 2.86-0.62 6.16-5.35 8.19-2.98 1.27-3.81 2.07-3.44 3.28 0.26 0.88 0.92 3.64 1.47 6.14 1.88 8.71 10.75 43.66 11.68 46.07 1.76 4.56 8.13 5.93 11.77 2.54zm-83.02-56.34c-0.3-0.5-3.7-0.92-7.55-0.92-7.02-0.02-15.72-1.01-24.37-2.76-3.37-0.68-4.89-1.49-5.56-2.96-0.93-2.04 0.32-4.27 2.39-4.27 0.49 0 1.12-0.36 1.39-0.81 0.78-1.26-7.02 0.9-8.8 2.45-2.31 1.99-2.02 2.53 2.27 4.3 8.62 3.53 41.89 7.64 40.23 4.97zm41.65-0.88c11.84-1.74 15.23-2.57 19.5-4.75 4.14-2.11 1.82-4.52-6.18-6.43-6.77-1.62-16.3-2.81-12.69-1.58 1.25 0.42 3.78 1.02 5.62 1.32 1.84 0.31 4.27 1.31 5.4 2.22l2.05 1.66-2.28 2.28c-2.54 2.55-8.57 3.9-21.93 4.91-4.37 0.34-7.95 0.96-7.95 1.39 0 1.21 5.25 0.92 18.46-1.02zm-41.19-6.52v-3.77l-12.05 0.51c-6.62 0.27-14.3 1.01-17.05 1.64l-5 1.15 5.91 1.24c3.25 0.68 10.82 1.57 16.82 1.98 6 0.42 11.02 0.81 11.14 0.88 0.13 0.08 0.23-1.56 0.23-3.63zm43.96 0.89c3.33-0.65 4.86-1.3 4.09-1.73-1.77-0.99-14.58-2.67-20.39-2.67h-4.93v6.63l7.95-0.6c4.38-0.33 10.36-1.06 13.28-1.63zm-7.14-8.04c-3.85-1.05-14.09-1.61-14.09-0.77 0 0.38 2.96 0.84 6.59 1.01s7.41 0.36 8.41 0.41c1 0.06 0.59-0.24-0.91-0.65zm-36.82-0.95c0-0.88-15.25-0.3-16.29 0.62-0.21 0.19 3.37 0.34 7.95 0.34 5.23 0 8.34-0.36 8.34-0.96zm-20.18-2.63c3.35-0.48 9.26-1.13 13.13-1.45l7.05-0.58v-73.48l-6.14 0.01-6.14 0.01-9 36.58c-4.95 20.12-9.36 37.3-9.8 38.18-0.68 1.34-0.37 1.59 2.01 1.59 1.54 0 5.55-0.39 8.89-0.86zm68.86-1.19c-0.35-1.12-4.59-18.27-9.43-38.1l-8.79-36.06-3.87-0.32-3.86-0.31v74.03l2.95 0.45c3.86 0.58 17.69 2.05 21.02 2.22 2.3 0.12 2.53-0.1 1.98-1.91zm131.34-87.05v-9.09h-340.95v18.18h340.95v-9.09zm-344.75-10.23l0.29-2.5h348.09v5.46l100.7-0.23 100.69-0.23 0.23-247.53 0.23-247.52-387.77-0.0041h-387.77l-0.0032 247.14c0 135.93 0.2743 247.43 0.6096 247.76 0.3354 0.34 50.966 0.51 112.51 0.38l111.9-0.23 0.29-2.5zm-212.58-243.44v-237.3l375.94 0.005h375.96v474.6h-751.89l-0.005-237.3zm748.04-0.22l0.22-233.43-371.34-0.006c-260.69-0.004-371.53 0.281-371.94 0.958-0.333 0.53-0.665 105.68-0.742 233.66l-0.141 232.7 371.85-0.22 371.86-0.23 0.23-233.43z" fill="#050002"/>
  <metadata>
    <rdf:RDF>
      <cc:Work>
        <dc:format>image/svg+xml</dc:format>
        <dc:type rdf:resource="http://purl.org/dc/dcmitype/StillImage"/>
        <cc:license rdf:resource="http://creativecommons.org/licenses/publicdomain/"/>
        <dc:publisher>
          <cc:Agent rdf:about="http://openclipart.org/">
            <dc:title>Openclipart</dc:title>
          </cc:Agent>
        </dc:publisher>
        <dc:title>Chalkboard</dc:title>
        <dc:date>2007-02-03T12:22:39</dc:date>
        <dc:description>Landscape US Letter size chalkboard that could be used as a background.</dc:description>
        <dc:source>http://openclipart.org/detail/3028/chalkboard-by-revans2</dc:source>
        <dc:creator>
          <cc:Agent>
            <dc:title>revans2</dc:title>
          </cc:Agent>
        </dc:creator>
        <dc:subject>
          <rdf:Bag>
            <rdf:li>board</rdf:li>
            <rdf:li>border</rdf:li>
            <rdf:li>chalkboard</rdf:li>
            <rdf:li>clip art</rdf:li>
            <rdf:li>clipart</rdf:li>
            <rdf:li>externalsource</rdf:li>
            <rdf:li>green</rdf:li>
            <rdf:li>image</rdf:li>
            <rdf:li>media</rdf:li>
            <rdf:li>public domain</rdf:li>
            <rdf:li>school</rdf:li>
            <rdf:li>svg</rdf:li>
          </rdf:Bag>
        </dc:subject>
      </cc:Work>
      <cc:License rdf:about="http://creativecommons.org/licenses/publicdomain/">
        <cc:permits rdf:resource="http://creativecommons.org/ns#Reproduction"/>
        <cc:permits rdf:resource="http://creativecommons.org/ns#Distribution"/>
        <cc:permits rdf:resource="http://creativecommons.org/ns#DerivativeWorks"/>
      </cc:License>
    </rdf:RDF>
  </metadata>
</svg>
